/* XPM */
static char *_88fbad53ed5447f85877690c36e5e2fhVRYLrTnTZuSyY44[] = {
/* columns rows colors chars-per-pixel */
"64 64 218 2 ",
"   c #010101",
".  c #080605",
"X  c #090906",
"o  c #0C0B09",
"O  c #180C0A",
"+  c #14110C",
"@  c #19120A",
"#  c #19180D",
"$  c #151311",
"%  c #191713",
"&  c #1E1B13",
"*  c #210908",
"=  c #2A180E",
"-  c #221E13",
";  c #2D200F",
":  c #222017",
">  c #292514",
",  c #2A2618",
"<  c #2B251B",
"1  c #352813",
"2  c #342D1C",
"3  c #37321D",
"4  c #37032F",
"5  c #38002C",
"6  c #340835",
"7  c #320A38",
"8  c #352E21",
"9  c #3A3424",
"0  c #4F3C1C",
"q  c #4D4327",
"w  c #5C512F",
"e  c #645B36",
"r  c #2E1241",
"t  c #2C1847",
"y  c #272050",
"u  c #232759",
"i  c #222A5C",
"p  c #922B24",
"a  c #AF2F28",
"s  c #B02F28",
"d  c #A7312A",
"f  c #B4322A",
"g  c #BA342C",
"h  c #BA392C",
"j  c #B13530",
"k  c #C1372E",
"l  c #C5392F",
"z  c #C73B30",
"x  c #CA3A31",
"c  c #D53C35",
"v  c #D93D37",
"b  c #DD3E38",
"n  c #BD452E",
"m  c #BE482E",
"M  c #BC4631",
"N  c #C1472F",
"B  c #C04A2F",
"V  c #C44A39",
"C  c #D34537",
"Z  c #DE453B",
"A  c #DD4B3B",
"S  c #C55237",
"D  c #DD563D",
"F  c #E3433C",
"G  c #E04E3C",
"H  c #E4593E",
"J  c #D6693D",
"K  c #D7743D",
"L  c #D8733F",
"P  c #D9793F",
"I  c #856F47",
"U  c #947A4E",
"Y  c #977E51",
"T  c #CE5942",
"R  c #D55845",
"E  c #E04E41",
"W  c #F44E48",
"Q  c #FE4D4F",
"!  c #E45947",
"~  c #F7534A",
"^  c #FE514F",
"/  c #FE5E4E",
"(  c #FE5950",
")  c #DA6542",
"_  c #D57A48",
"`  c #E96D4D",
"'  c #FE6551",
"]  c #FE6B52",
"[  c #FE7353",
"{  c #FE7C54",
"}  c #FB7958",
"|  c #C6883F",
" . c #EB9E3F",
".. c #9B8254",
"X. c #A58856",
"o. c #A68956",
"O. c #AD8E59",
"+. c #AA905F",
"@. c #B89157",
"#. c #B3935C",
"$. c #BD9C5C",
"%. c #AB9260",
"&. c #B69860",
"*. c #BB9D61",
"=. c #DE8547",
"-. c #CE9144",
";. c #DD944B",
":. c #ED904F",
">. c #FE8356",
",. c #FD8A57",
"<. c #FD8D58",
"1. c #FB9556",
"2. c #FD9556",
"3. c #D5AF4F",
"4. c #C9B75E",
"5. c #D7B85F",
"6. c #EAA14D",
"7. c #F4A24D",
"8. c #FEAD4E",
"9. c #E8BC44",
"0. c #F4B243",
"q. c #FAB647",
"w. c #FEBD47",
"e. c #FFBB49",
"r. c #EFA752",
"t. c #FEA452",
"y. c #F6A854",
"u. c #FEA950",
"i. c #FEA45D",
"p. c #E6B75A",
"a. c #FEB053",
"s. c #FABD52",
"d. c #FEB35D",
"f. c #FD9C64",
"g. c #F49C76",
"h. c #C3A462",
"j. c #D4BB61",
"k. c #FDAD65",
"l. c #FAA97D",
"z. c #F9B57D",
"x. c #CFC45E",
"c. c #E8C046",
"v. c #F6C145",
"b. c #FDC246",
"n. c #FFCE46",
"m. c #FFC448",
"M. c #F5C94C",
"N. c #FECE4C",
"B. c #FFD14D",
"V. c #EBC551",
"C. c #FCC851",
"Z. c #FED252",
"A. c #FDD459",
"S. c #D7C264",
"D. c #E6C867",
"F. c #EACA69",
"G. c #F8CC66",
"H. c #F3CD6A",
"J. c #EAD768",
"K. c #FAD46C",
"L. c #F7D96C",
"P. c #FBDB6D",
"I. c #EBCC73",
"U. c #F6CC79",
"Y. c #EFD074",
"T. c #F4D375",
"R. c #FCD574",
"E. c #FCDA73",
"W. c #F7D27B",
"Q. c #FEDB7B",
"!. c #FFE765",
"~. c #F9E06F",
"^. c #FEEC6C",
"/. c #FFF26F",
"(. c #F9E372",
"). c #FEED73",
"_. c #FBE479",
"`. c #FFF17A",
"'. c #FEAB87",
"]. c #ECBF84",
"[. c #F5BA81",
"{. c #FBB884",
"}. c #FEB389",
"|. c #FEB88B",
" X c #DCC688",
".X c #D7D09A",
"XX c #F5C481",
"oX c #FCC585",
"OX c #FACC84",
"+X c #FCC68A",
"@X c #FCCC8C",
"#X c #EAD28B",
"$X c #FCD383",
"%X c #FBD984",
"&X c #FCD38E",
"*X c #F9DD8E",
"=X c #EDD793",
"-X c #EEDC97",
";X c #FDD491",
":X c #FBDA91",
">X c #FDE18D",
",X c #FEF18C",
"<X c #EBE396",
"1X c #FBE392",
"2X c #FEEB94",
"3X c #FEE69E",
"4X c #FEEC9A",
"5X c #FEF394",
"6X c #FEF49B",
"7X c #FEF89D",
"8X c #EBE6A9",
"9X c #F5ECA7",
"0X c #FEECA4",
"qX c #FEF9A2",
"wX c #F5F0AF",
"eX c #FEF3A9",
"rX c #FCF7B2",
"tX c #FFFAB6",
/* pixels */
"5 5 5 5 5 5 5 5 5 5 5 5 5 5 5 5 5 5 5 5 5 5 5 5 5 5 5 5                 5 5 5 5 5 5 5 5 5 5 5 5 5 5 5 5 5 5 5 5 5 5 5 5 5 5 5 5 ",
"5 4 6 7 7 7 7 7 7 7 7 7 7 7 7 7 7 7 7 7 7 7 7 7 7 7 7 7 2 2 2 2 1 1 2 2 7 7 7 7 7 7 7 7 7 7 7 7 7 7 7 7 7 7 7 7 7 7 7 7 7 6 4 5 ",
"5 6 t y y y y y y y y y y y y y y y y y y y y y .       =X=X=X#XV.v.=X-X    y y y y y y y y y y y y y y y y y y y y y y y t 6 5 ",
"5 7 y u y y y y u i i i i i i i i i i i i i i i 9 8 1 1 >X>X3X1XK.A.>X1X3 3 i i i i i i i i i i i i i i i i i u y y y y u y 7 5 ",
"5 7 y y r 7 7 r y i i i i i i i i i i i i i X 8  X#XV.9.N.B.3X3X3X1XB.B.J.4.- . i i i i i i i i i i i i i i i y r 7 7 r y y 7 5 ",
"5 7 y y 7 5 5 7 y i i i i i i i i i i i i i   <  X1XN.n.n.n.3X3X3X3Xn.n./.x.#   i i i i i i i i i i i i i i i y 7 5 5 7 y y 7 5 ",
"5 7 y y 7 5 5 7 y i i i i i i i i i X       3X3X3X3X3X3X3X3Xn.n.n.m.Q Q <._ @   i i i i i i i i i i i i i i i y 7 5 5 7 y y 7 5 ",
"5 7 y y r 7 7 r y i i i i i i i i i X       3X3X3X3X3X3X3X3Xn.n.n.m.Q Q <._ @   i i i i i i i i i i i i i i i y r 7 7 r y y 7 5 ",
"5 7 y u y y y y u i i i i i       9 =X3X3X3Xn.Z.1X1XN.n.n.n.^ ^ ' ' ] ] i.i.P.j.%   i i i i i i i i i i i i i u y y y y u y 7 5 ",
"5 7 y i i i i i i i i i i i < < ; w -X3X3X3Xn.Z.>X%Xs.e.m.m.] ] } } } } k.k.P.S.9 > i i i i i i i i i i i i i i i i i i i y 7 5 ",
"5 7 y i i i i i i i X . . .  X X9.p.1X3X3X3Xn.n.Z.C.] / 2.2.P.E.>X1X{.{.oXOXE.L.j.5.. . i i i i i i i i i i i i i i i i i y 7 5 ",
"5 7 y i i i i i i i < : : : 3X3XB.Z.>X1X1X1Xw.w.b.8./ ( f.f.).`.5X6X[.[.[.z.H.H.T.Y.- - i i i i i i i i i i i i i i i i i y 7 5 ",
"5 7 y i i i i i   <  X0X0X0X3X3XB.n.n.n.n.n.Q ^ ' ] ,.<.7XqX7X6X&XoXv c c c v ! oX@X;X;X    i i i i i i i i i i i i i i i y 7 5 ",
"5 7 y i i i i i   >  X3X3X3X3X3XB.n.n.n.n.n.Q ^ / ' ,.,.7X7X7X6X;XoXb b b b b ! oX@X@X@X    i i i i i i i i i i i i i i i y 7 5 ",
"5 7 y i X       3X>XZ.n.n.n.3X3XB.n.n.n.' ] <.f.2X7X7X7X@X+X+XXX=.L b b a f c A L L '.'.    i i i i i i i i i i i i i i i y 7 5 ",
"5 7 y i X       3X>XZ.n.n.n.3X3XB.n.n.n.' ' <.f.2X7X7X7X@X+X@XXX=.P b b a f v A L L '.}.    i i i i i i i i i i i i i i i y 7 5 ",
"5 7   2 3.9.=X=X3X3X3X>Xn.n.B.B./ / [ [ ,.>.6X6X7X7X7X7X7X7XE Z x z x x v c f f C Z Z Z F.4.<   i i i i i i i i i i i i i y 7 5 ",
"5 7 9 e V.n.>X>X3X3X>X%X8.8.q.q.~ W ! ! { [ 4X4X7X7X5X5X2X5XC c l k l l v c f g c b v c E.D.w 3 i i i i i i i i i i i i i y 7 5 ",
"X 9 #X%XN.n.N.B.3X>XA.e.( ( _ =.Z c d f Z Z &X;X6X6X_.(.T.E.h f f f l l x x k x v b x l @XOXD.S.$ . i i i i i i i i i i i y 7 5 ",
"  2 =X>XN.n.n.n.3X>XZ.w.Q Q L K Z c f s b b @X&X6X5X(.(.P.P.h f f f l l l l l x v b z z @XOXY.D.o   i i i i i i i i i i i y 7 5 ",
"  2 =X3X3X3X3X3Xn.e./ ^ ] ] b b x x v b P P v R [.+X'.'.[ [ &X[.S f f f f f l k a a |.}.'.}.+X].o   i i i i i i i i i i i y 7 5 ",
"  2 <X0X3X3X3X3Xn.e./ ^ ] ] b b x x b b P P b ! [.+X'.'.[ [ @Xz.V f f f f g l k a a }.'.'.'.+X].o   i i i i i i i i i i i y 7 5 ",
"5 7   2 V.n.n.n.n.e.[ [ <.<.f f l l l l l l b ! 1X6X@X@X'.'.@X&X6X6Xk x f f f n 1.2.2.2.6X7X7X7X7XqX    i i i i i i i i i y 7 5 ",
"5 7   2 V.N.N.Z.n.m.>.{ 2.2.f f k l k k V V ! ` >X5X;X;X|.|.@X;X6X6XT R V V V T 1.2.2.<.4X4X4X4X7XqX    i i i i i i i i i y 7 5 ",
"5 7   3 Y.E.E.E.n.n.b.m.m.m.f f f f f f K J @XOX).`.6X6X4X4X6X6X7X7X1X1X[.[.[.z.,.,.{ { }.}.}.|.6XqX    i i i i i i i i i y 7 5 ",
"5 7   3 I.W.Q.Q.B.B.B.B.B.B.n n n n n m =.=.:X>X).).>X*X>X>X*X*X*X>X5X6X@X@X&XoX2.<.>.>.}.}.}.}.*X1X* * i i i i i i i i i y 7 5 ",
"5 7   < +.#.Q.Q.Q.Q.Q.Q.Q.Q.v.v.v.v.v.v.^.^.).)./.P.H G E G G A A A (.(.@X&X6X,XK.H.H.G.6X4X@XoXD A c c = X i i i i i i i y 7 5 ",
"5 7   < %.#.Q.Q.Q.Q.Q.Q.Q.Q.n.n.n.n.n.n./.^././.^.K.G b F Z b b b Z ^.(.+X&X6X,XP.Y.L.L.7X6X;XoXG b b F O   i i i i i i i y 7 5 ",
"5 7 y i X   O.O.O.$.T.Q.Q.Q.Q.Q.Q.P.n.n.n.n.n.q.G v l l l l l k f f b b 7X5X(.(.(.(.(.(.7X:XR l v b a a c j X   i i i i i y 7 5 ",
"5 7 y i X   #.#.#.$.T.Q.Q.Q.Q.Q.Q.P.n.n.n.n.n.q.G v l l l l l k f f b b 7X5X(.~.~.(.~.~.7X*XR z b b a a c j X   i i i i i y 7 5 ",
"5 7 y i i i . . . - Y #.#.#.#.#.W.Q.Q.Q.Q.Q.n.n.m.m.m.m.f f f f f f b b Z ` 1X6X6X6X6X6X7X1X;.J g f l l f p X   i i i i i y 7 5 ",
"5 7 y i i i       & I U U U U U I.W.U.T.Q.Q.B.B.B.N.n.n.N N N n f f v v v ! 1X7X7X7X7X7X5X>X:._ g f l k d p = * i i i i i y 7 5 ",
"5 7 y i i i i i i i - & & & & & #.*.*.*.Q.Q.E.E.E.P.n.n.0.0.0. .N f g g x R 1X7X7X7X7X7X_.Q.l.g.n f g g g g g g . . i i i y 7 5 ",
"5 7 y i i i i i i i .           ..o.o.o.Q.Q.W.Q.Q.E.N.n.n.n.n.q.S h h h x ) 1X7X7X7X7X7X(.E.{.l.N g h h k x v b     i i i y 7 5 ",
"5 7 y i i i i i i i i i i i i i         #.O.O.$.T.Q.Q.Q.t.t.Q.E.Z.B.B.n.n.Z.^././.^.qX7X@XoXi.t.{ { P.L.M g v b     i i i y 7 5 ",
"5 7 y i i i i i i i i i i i i i         *.&.&.h.T.Q.Q.Q.u.u.Q.E.Z.n.n.n.n.Z.^./././.qXqX@XoXi.i.{ [ P.L.M g v b     i i i y 7 5 ",
"5 7 y i i i i i i i i i i i i i i i i i       & Y O.O.O.u.u.u.u.u.u.u.u.n.n.n.B.^./.b b b c f a c b ) ) G.E.5X7XK.P.    i y 7 5 ",
"5 7 y i i i i i i i i i i i i i i i i i       - I Y U Y -.-.u.u.u.u.u.u.N.N.N.Z.!.!.H H b c d d v b J D p.F.,X,XT.R.< 2 i y 7 5 ",
"5 7 y i i i i i i i i i i i i i i i i i i i i i + + + + @ @ 7.u.u.u.u.u.E.E.E.P.B.B.w.b.g g f f x x f f C ) A.A.'.}.D.4.>   7 5 ",
"5 7 y i i i i i i i i i i i i i i i i i i i i i .           7.u.d.d.7.7.R.R.R.K.n.n.B.B.B N N N l l a a x D s.C.z.z.(.S.>   7 5 ",
"5 7 y i i i i i i i i i i i i i i i i i i i i i i i i i     7.d.3X0X@.@.u.u.u.u.8.8.&X$Xv.v.v.0.h f f f k C { >.Z.Z.(.S.>   7 5 ",
"5 7 y i i i i i i i i i i i i i i i i i i i i i i i i i     7.d.0XrXO.O.u.u.u.u.u.u.&X$Xn.n.n.b.h f f g l C [ [ Z.Z.(.S.>   7 4 ",
"5 7 y i i i i i i i i i i i i i i i i i i i i i i i i i     7.d.0XwX    u.u.u.u.u.u.u.t.u.a.U.$Xn.n.n.n.n.B././.qXqXqXqXqX<X&   ",
"5 7 y i i i i i i i i i i i i i i i i i i i i i i i i i     7.d.0XwX    u.u.u.u.u.u.u.u.u.a.U.$XN.n.n.n.n.B.^./.qX7X7X7X7X<X&   ",
"5 7 y i i i i i i i i i i i i i i i i i i i i i i i i i     F.5.>   i i   1 6.a.K.K.u.u.u.u.u.u.u.u.%X$XN.n.n.n./.^.^.^.^.J.$   ",
"5 7 y i i i i i i i i i i i i i i i i i i i i i i i i i     Y.S.q < i i   1 | 6.G.G.a.a.a.y.;.;.r.7.U.XXV.M.N.N.).).^.^.^.J.+   ",
"5 7 y i i i i i i i i i i i i i i i i i i i i i i i i i     9X9X.X.X. . i i ; 0 r.a.K.G.G.5.q 1 O.@.*.*.@.h.U.W.%X%XB.B.B.c.o   ",
"5 7 y i i i i i i i i i i i i i i i i i i i i i i i i i     9XrXtXwX    i i   = 6.u.P.K.F.4.< X ..o.o.o.o.#.U.$XOXOXn.n.n.9.o   ",
"5 7 y i i i i i i i i i i i i i i i i i i i i i i i i i     Y.Q.eXwX    i i   = 6.u.E.E.+ $ i i & o o o o 2 O.#.#.#.@.#.#.o.o   ",
"5 7 y i i i i i i i i i i i i i i i i i i i i i i i i i     H.E.eXwX    i i   = 6.u.R.E.    i i o         - +.&.&.&.&.&.&.o.o   ",
"5 7 y i i i i i i i i i i i i i i i i i i i i i i i i i     F.E.eXwX    i i i i X   ~.E.    i i i i i i i i X               7 5 ",
"5 7 y i i i i i i i i i i i i i i i i i i i i i i i i i     H.Q.eXwX    i i i i X   P.E.    i i i i i i i i X               7 5 ",
"5 7 y i i i i i i i i i i i i i i i i i i i i i i i i i i i - - : : i i i i i i X   P.E.    i i i i i i i i i i i i i i i y 7 5 ",
"5 7 y i i i i i i i i i i i i i i i i i i i i i i i i i i i         i i i i i i X   P.E.    i i i i i i i i i i i i i i i y 7 5 ",
"5 7 y i i i i i i i i i i i i i i i i i i i i i i i i i i i i i i i i i i i i i X   P.E.    i i i i i i i i i i i i i i i y 7 5 ",
"5 7 y u y y y y u i i i i i i i i i i i i i i i i i i i i i i i i i i i i i i i X   P.E.    i i i i i i i i i u y y y y u y 7 5 ",
"5 7 y y r 7 7 r y i i i i i i i i i i i i i i i i i i i i i i i i i i i i i   < 8XtXtXtX    i i i i i i i i i y r 7 7 r y y 7 5 ",
"5 7 y y 7 5 5 7 y i i i i i i i i i i i i i i i i i i i i i i i i i i i i i   < 8XtXtXtX    i i i i i i i i i y 7 5 5 7 y y 7 5 ",
"5 7 y y 7 5 5 7 y i i i i i i i i i i i i i i i i i i i i i i i i i i i i i   > F.K.tXtX    i i i i i i i i i y 7 5 5 7 y y 7 5 ",
"5 7 y y r 7 7 r y i i i i i i i i i i i i i i i i i i i i i i i i i i i i i   > F.R.tXtX    i i i i i i i i i y r 7 7 r y y 7 5 ",
"5 7 y u y y y y u i i i i i i i i i i i i i i i i i i i i i i i i i i i i i   > F.K.tXtX    i i i i i i i i i u y y y y u y 7 5 ",
"5 6 t y y y y y y y y y y y y y y y y y y y y y y y y y y y y y y y y y y y . > j.D.8X8X    y y y y y y y y y y y y y y y t 6 5 ",
"5 4 6 7 7 7 7 7 7 7 7 7 7 7 7 7 7 7 7 7 7 7 7 7 7 7 7 7 7 7 7 7 7 7 7 7 7 7 7 7 & $ & % 7 7 7 7 7 7 7 7 7 7 7 7 7 7 7 7 7 6 4 5 ",
"5 5 5 5 5 5 5 5 5 5 5 5 5 5 5 5 5 5 5 5 5 5 5 5 5 5 5 5 5 5 5 5 5 5 5 5 5 5 5 5 X       5 5 5 5 5 5 5 5 5 5 5 5 5 5 5 5 5 5 5 5 "
};
