/* XPM */
static char *_01a37652d4246ed9cb6c0568057a529gIuzMF3iFST0dwfa[] = {
/* columns rows colors chars-per-pixel */
"64 64 92 1 ",
"  c black",
". c #0E000B",
"X c #090B0C",
"o c #2A0021",
"O c #38002C",
"+ c #380430",
"@ c #320A38",
"# c #380D38",
"$ c #38103C",
"% c #1A2024",
"& c #232B31",
"* c #2D2B38",
"= c #42032B",
"- c #550929",
"; c #550D2D",
": c #5E0C28",
"> c #411037",
", c #511536",
"< c #5A1431",
"1 c #341945",
"2 c #272051",
"3 c #2B2957",
"4 c #222A5C",
"5 c #262B5F",
"6 c #372651",
"7 c #312F5B",
"8 c #37335D",
"9 c #2F2D66",
"0 c #332E6A",
"q c #273060",
"w c #293362",
"e c #2D3966",
"r c #363662",
"t c #333B66",
"y c #34346B",
"u c #333C69",
"i c #363F6D",
"p c #422B48",
"a c #4E2B4C",
"s c #522343",
"d c #542F4E",
"f c #442D51",
"g c #452F56",
"h c #5B2E57",
"j c #4F3A5A",
"k c #503757",
"l c #7B3B4B",
"z c #403174",
"x c #48347B",
"c c #4D3A7F",
"v c #613E68",
"b c #74356B",
"n c #77397B",
"m c #37446E",
"M c #38456F",
"N c #3E4174",
"B c #3F4D75",
"V c #54405F",
"C c #414369",
"Z c #435379",
"A c #4E616B",
"S c #8F1A24",
"D c #8E2730",
"F c #8D2A33",
"G c #89323C",
"H c #AB2321",
"J c #AA2624",
"K c #A72B2A",
"L c #A62E2D",
"P c #B5332D",
"I c #AA2F31",
"U c #B33138",
"Y c #B7323B",
"T c #D22F1E",
"R c #C83023",
"E c #8E3841",
"W c #9A364A",
"Q c #813876",
"! c #553785",
"~ c #593889",
"^ c #643C85",
"/ c #623A91",
"( c #663A93",
") c #4E6082",
"_ c #546485",
"` c #6B7792",
"' c #637A96",
"] c #68808F",
"[ c #6C8092",
"{ c #738097",
"} c #7E9BB1",
"| c #8BABBF",
/* pixels */
"                                                                ",
" X%&&&&&&&&&&&&&&&&&&&&&&&&&&%X  X%&&&&&&&&&&&&&&&&&&&&&&&&&&%X ",
" %A]]]]]]]]]]]]]]]]]]]]]]]]]]A%  %A]]]]]]]]]]]]]]]]]]]]]]]]]]A% ",
".*[||||||||||||||||||||||||||[*..*[||||||||||||||||||||||||||[*.",
"op{||||||||||||||||||||||||||{poop{||||||||||||||||||||||||||{po",
"@g`}}}}}}}}}}}}}}}}}}}}}}}}}}`g@@g`}}}}}}}}}}}}}}}}}}}}}}}}}}`g@",
"2r_''''''''''''''''''''''''''_r22r_''''''''''''''''''''''''''_r2",
"4eZ))))))))))))))))))))))))))Ze44eZ))))))))))))))))))))))))))Ze4",
"4wMBBBBBBBBBBBBBBBBBBBBBBBBBBMw44wMBBBBBBBBBBBBBBBBBBBBBBBBBBMw4",
"4qummmmmmmmmmmmmmmmmmmmmmmmmmuq44qummmmmmmmmmmmmmmmmmmmmmmmmmuq4",
"4qummmmmmmmmmmmmmmmmmmmmmmmmmuq44qummmmmmmmmmmmmmmmmmmmmmmmmmuq4",
"23tmmmmmmmmmmmmmmmmmmmmmmmmmmt3223tmmmmmmmmmmmmmmmmmmmmmmmmmmt32",
"@1rmmmmmmmmmmmmmmmmmmmmmmmmmmr1@@1rmmmmmmmmmmmmmmmmmmmmmmmmmmr1@",
"O#6rtuuuuuuuuuuuuuuuuuuuuuutr6#OO#6rtuuuuuuuuuuuuuuuuuuuuuutr6#O",
"O+#13qqqqqqqqqqqqqqqqqqqqqq31#+OO+#13qqqqqqqqqqqqqqqqqqqqqq31#+O",
"O+#13qqqqqqqq7faaaaaaaaaaaas<-=OO+#13qqqqqqqq7faaaaaaaaaaaas<-=O",
"O#6rtuuuuuuuujGLLLLLLLLLLLLKJS-OO#6rtuuuuuuuujGLLLLLLLLLLLLKJS-O",
"@1rmmmmmmmmCVlPTTTTTTTTTTTTRPF,@@1rmmmmmmmmCVlPTTTTTTTTTTTTRPF,@",
"23tmmmmmmmmVEPRTTTTTTTTTTTTPlk6223tmmmmmmmmVEPRTTTTTTTTTTTTPlk62",
"4qummmmmmCVlPTTTTTTTTTTTTRPEVuq44qummmmmmCVlPTTTTTTTTTTTTRPEVuq4",
"4qummmmmmVEPRTTTTTTTTTTTTPlVCuq44qummmmmmVEPRTTTTTTTTTTTTPlVCuq4",
"4qummmmCVlPTTTTTTTTTTTTRPEVmmuq44qummmmCVlPTTTTTTTTTTTTRPEVmmuq4",
"4qummmmVEPRTTTTTTTTTTTTPlVCmmuq44qummmmVEPRTTTTTTTTTTTTPlVCmmuq4",
"4qummCVlPTTTTTTTTTTTTRPEVmmmmuq44qummCVlPTTTTTTTTTTTTRPEVmmmmuq4",
"4qummVEPRTTTTTTTTTTTTPlVCmmmmuq44qummVEPRTTTTTTTTTTTTPlVCmmmmuq4",
"4quCVlPTTTTTTTTTTTTRPEVmmmmmmuq44quCVlPTTTTTTTTTTTTRPEVmmmmmmuq4",
"4quVEPRTTTTTTTTTTTTPlVCmmmmmmuq44quVEPRTTTTTTTTTTTTPlVCmmmmmmuq4",
"47jlPTTTTTTTTTTTTRPEVmmmmmmmmuq447jlPTTTTTTTTTTTTRPEVmmmmmmmmuq4",
"4fGPRTTTTTTTTTTTTPlVCmmmmmmmmuq44fGPRTTTTTTTTTTTTPlVCmmmmmmmmuq4",
"0hITTTTTTTTTTTTRPEVmmmmmmmmmmuq59hITTTTTTTTTTTTRPEVmmmmmmmmmmuq4",
"!bUTTTTTTTTTTTTPlVCmmmmmmmmmmuq9xbUTTTTTTTTTTTTPlVCmmmmmmmmmmuq4",
"(QYTTTTTTTTTTRPEVmmmmmmmmmmmmiyz~QYTTTTTTTTTTRPEVmmmmmmmmmmmmiy0",
"(QYTTTTTTTTTTPlVCmmmmmmmmmmmmNc~/QYTTTTTTTTTTPlVCmmmmmmmmmmmmNc!",
"(QYTTTTTTTTRPEVmmmmmmmmmmmmCVv^((QYTTTTTTTTRPEVmmmmmmmmmmmmCVv^(",
"(QYTTTTTTTTPlVCmmmmmmmmmmmmVEWn((QYTTTTTTTTPlVCmmmmmmmmmmmmVEWn(",
"(QYTTTTTTRPEVmmmmmmmmmmmmCVlPYQ((QYTTTTTTRPEVmmmmmmmmmmmmCVlPYQ(",
"(QYTTTTTTPlVCmmmmmmmmmmmmVEPRYQ((QYTTTTTTPlVCmmmmmmmmmmmmVEPRYQ(",
"(QYTTTTRPEVmmmmmmmmmmmmCVlPTTYQ((QYTTTTRPEVmmmmmmmmmmmmCVlPTTYQ(",
"(QYTTTTPlVCmmmmmmmmmmmmVEPRTTYQ((QYTTTTPlVCmmmmmmmmmmmmVEPRTTYQ(",
"(QYTTRPEVmmmmmmmmmmmmCVlPTTTTYQ((QYTTRPEVmmmmmmmmmmmmCVlPTTTTYQ(",
"(QYTTPlVCmmmmmmmmmmmmVEPRTTTTYQ((QYTTPlVCmmmmmmmmmmmmVEPRTTTTYQ(",
"(QYRPEVmmmmmmmmmmmmCVlPTTTTTTYQ((QYRPEVmmmmmmmmmmmmCVlPTTTTTTYQ(",
"(QYPlVCmmmmmmmmmmmmVEPRTTTTTTYQ((QYPlVCmmmmmmmmmmmmVEPRTTTTTTYQ(",
"(nWEVmmmmmmmmmmmmCVlPTTTTTTTTYQ((nWEVmmmmmmmmmmmmCVlPTTTTTTTTYQ(",
"(^vVCmmmmmmmmmmmmVEPRTTTTTTTTYQ((^vVCmmmmmmmmmmmmVEPRTTTTTTTTYQ(",
"!cNmmmmmmmmmmmmCVlPTTTTTTTTTTYQ/~cNmmmmmmmmmmmmCVlPTTTTTTTTTTYQ(",
"0yimmmmmmmmmmmmVEPRTTTTTTTTTTYQ~zyimmmmmmmmmmmmVEPRTTTTTTTTTTYQ(",
"4qummmmmmmmmmCVlPTTTTTTTTTTTTUbx9qummmmmmmmmmCVlPTTTTTTTTTTTTUb!",
"4qummmmmmmmmmVEPRTTTTTTTTTTTTIh95qummmmmmmmmmVEPRTTTTTTTTTTTTIh0",
"4qummmmmmmmCVlPTTTTTTTTTTTTRPGf44qummmmmmmmCVlPTTTTTTTTTTTTRPGf4",
"4qummmmmmmmVEPRTTTTTTTTTTTTPlj744qummmmmmmmVEPRTTTTTTTTTTTTPlj74",
"4qummmmmmCVlPTTTTTTTTTTTTRPEVuq44qummmmmmCVlPTTTTTTTTTTTTRPEVuq4",
"4qummmmmmVEPRTTTTTTTTTTTTPlVCuq44qummmmmmVEPRTTTTTTTTTTTTPlVCuq4",
"4qummmmCVlPTTTTTTTTTTTTRPEVmmuq44qummmmCVlPTTTTTTTTTTTTRPEVmmuq4",
"4qummmmVEPRTTTTTTTTTTTTPlVCmmuq44qummmmVEPRTTTTTTTTTTTTPlVCmmuq4",
"4qummCVlPTTTTTTTTTTTTRPEVmmmmuq44qummCVlPTTTTTTTTTTTTRPEVmmmmuq4",
"4qummVEPRTTTTTTTTTTTTPlVCmmmmuq44qummVEPRTTTTTTTTTTTTPlVCmmmmuq4",
"23tCVlPTTTTTTTTTTTTRPEVmmmmmmt3223tCVlPTTTTTTTTTTTTRPEVmmmmmmt32",
"@1rVEPRTTTTTTTTTTTTPlVCmmmmmmr1@@1rVEPRTTTTTTTTTTTTPlVCmmmmmmr1@",
"O>dlPTTTTTTTTTTTTRPEVmmmmmmmm8$OO>dlPTTTTTTTTTTTTRPEVmmmmmmmm8$O",
"O;DPRTTTTTTTTTTTTPlVCmmmmmmmm8$OO;DPRTTTTTTTTTTTTPlVCmmmmmmmm8$O",
"O-SHHHHHHHHHHHHHHDd88888888886#OO-SHHHHHHHHHHHHHHDd88888888886#O",
"O=-::::::::::::::;>$$$$$$$$$$#+OO=-::::::::::::::;>$$$$$$$$$$#+O",
"OOOOOOOOOOOOOOOOOOOOOOOOOOOOOOOOOOOOOOOOOOOOOOOOOOOOOOOOOOOOOOOO"
};
