/* XPM */
static char *_0bcaaf8e5274ca5f2a126877ff66a51ZouqkU91gorhTby1[] = {
/* columns rows colors chars-per-pixel */
"64 64 211 2 ",
"   c #3A2C1F",
".  c #37032F",
"X  c #38002C",
"o  c #2F1F24",
"O  c #331E25",
"+  c #3F1B28",
"@  c #340835",
"#  c #320A38",
"$  c #252222",
"%  c #2B2524",
"&  c #2F2824",
"*  c #282529",
"=  c #2D2B2B",
"-  c #382724",
";  c #332925",
":  c #312E2E",
">  c #3A2D29",
",  c #3A2E30",
"<  c #302F3D",
"1  c #343232",
"2  c #393635",
"3  c #3D3C3C",
"4  c #402E1E",
"5  c #46321D",
"6  c #4B341D",
"7  c #52381C",
"8  c #5C3D1A",
"9  c #603E1A",
"0  c #6E3D1C",
"q  c #4A182C",
"w  c #52152D",
"e  c #5B122F",
"r  c #5E182D",
"t  c #5F1531",
"y  c #6C1C2D",
"u  c #631432",
"i  c #6B1C37",
"p  c #482925",
"a  c #432D2A",
"s  c #42342B",
"d  c #4D372B",
"f  c #593F23",
"g  c #55342E",
"h  c #413E3E",
"j  c #483938",
"k  c #573732",
"l  c #693D2B",
"z  c #753A29",
"x  c #62213A",
"c  c #623732",
"v  c #633932",
"b  c #693D34",
"n  c #58481F",
"m  c #6B4418",
"M  c #754817",
"N  c #564222",
"B  c #4D433B",
"V  c #594538",
"C  c #674329",
"Z  c #73422A",
"A  c #7A4729",
"S  c #7A572D",
"D  c #6A4335",
"F  c #6A423D",
"G  c #684938",
"H  c #714436",
"J  c #754C3B",
"K  c #784B3B",
"L  c #6A5135",
"P  c #7A523B",
"I  c #2E1241",
"U  c #2C1847",
"Y  c #37374D",
"T  c #272050",
"R  c #232759",
"E  c #222A5C",
"W  c #413F40",
"Q  c #7A2645",
"!  c #7E2949",
"~  c #793750",
"^  c #424242",
"/  c #4A4542",
"(  c #4D4B4B",
")  c #524D49",
"_  c #595555",
"`  c #5C5959",
"'  c #6C514F",
"]  c #7D5D56",
"[  c #6A635E",
"{  c #786158",
"}  c #6A6664",
"|  c #736E6B",
" . c #797571",
".. c #843124",
"X. c #874C1B",
"o. c #8A5314",
"O. c #9C5C12",
"+. c #9A5E1D",
"@. c #A35D15",
"#. c #8F731D",
"$. c #AC630E",
"%. c #B7690D",
"&. c #A9691A",
"*. c #B66715",
"=. c #BD6111",
"-. c #A9751E",
";. c #BB7515",
":. c #844C26",
">. c #885A28",
",. c #925221",
"<. c #995C24",
"1. c #84553F",
"2. c #995A35",
"3. c #A15E26",
"4. c #8B6429",
"5. c #90692E",
"6. c #99792A",
"7. c #A76421",
"8. c #B16F2B",
"9. c #C36E0B",
"0. c #CB720C",
"q. c #D67907",
"w. c #D37609",
"e. c #D6790A",
"r. c #D87809",
"t. c #C06D17",
"y. c #CA7715",
"u. c #D87D11",
"i. c #CE7D25",
"p. c #862E4E",
"a. c #843E47",
"s. c #883050",
"d. c #8C444F",
"f. c #895A44",
"g. c #945E42",
"h. c #886147",
"j. c #966446",
"k. c #886558",
"l. c #976B53",
"z. c #96735B",
"x. c #A26847",
"c. c #A56C49",
"v. c #AA6F4A",
"b. c #A4704F",
"n. c #AB714B",
"m. c #BC7F48",
"M. c #AE7551",
"N. c #A87555",
"B. c #B37B55",
"V. c #B57F59",
"C. c #984C68",
"Z. c #A15460",
"A. c #886B66",
"S. c #8C7B74",
"D. c #A57C62",
"F. c #AC8A1C",
"G. c #B38C1B",
"H. c #BD892E",
"J. c #D4850E",
"K. c #DE8B0D",
"L. c #DF920E",
"P. c #C58F17",
"I. c #D58C13",
"U. c #D49512",
"Y. c #E08B0C",
"T. c #E4940E",
"R. c #E69E13",
"E. c #D9A614",
"W. c #D0A219",
"Q. c #DCB01A",
"!. c #E6AB14",
"~. c #E9B917",
"^. c #F3B916",
"/. c #F7BD16",
"(. c #CB9429",
"). c #E0912B",
"_. c #DEAF27",
"`. c #EBBB30",
"'. c #F2C217",
"]. c #F7C318",
"[. c #FECD19",
"{. c #FFD537",
"}. c #B8835D",
"|. c #9D8068",
" X c #8D8479",
".X c #988674",
"XX c #93897D",
"oX c #B58461",
"OX c #B78969",
"+X c #B68D6B",
"@X c #BA8C69",
"#X c #BC9471",
"$X c #D18D43",
"%X c #C18D66",
"&X c #C3916B",
"*X c #C9976F",
"=X c #CA9B74",
"-X c #CFA07A",
";X c #D5A57C",
":X c #D7A87F",
">X c #968A86",
",X c #9B9793",
"<X c #A49E99",
"1X c #A5A098",
"2X c #AAA9A8",
"3X c #B5ACAA",
"4X c #B6B5B5",
"5X c #BCB9B9",
"6X c #C1BDBC",
"7X c #C5C4C4",
"8X c #C9C9C9",
/* pixels */
"X X X X X X X X X X X X X X X X X X X X X X X X X X X X X X X X X X X X X X X X X X X X X X X X X X X X X X X X X X X X X X X X ",
"X . @ # # # # # # # # # # # # # # # # # # # # # # # # # # # # # # # # # # # # # # # # # # # # # # # # # # # # # # # # # # @ . X ",
"X @ U T T T T T T T T T T T T T T T T T T T T T T $ = ^ ^ ^ ^ ^ $ $ $ $ $ T T T T T T $ $ $ ^ ^ ^ 2 $ T T T T T T T T T T U @ X ",
"X # T R T T T T R E E E E E E E E E E E E E E E E $ = ^ ^ ^ ^ ^ $ $ $ $ $ E E E E E E $ $ $ ^ ^ ^ 2 $ E E E E R T T T T R T # X ",
"X # T T I # # I T E E E E E E E E E E E E E E ^ ^ ^ ^ ^ ^ ^ ^ ^ ^ 3 $ $ $ F.W.W.G.$ $ $ $ $ $ % ^ ^ ^ ^ ^ $ $ T I # # I T T # X ",
"X # T T # X X # T E E E E E E E E E E E E E E ^ ^ ^ ^ ^ ^ ^ 3 3 3 2 $ $ $ #.G.W.G.$ $ $ $ $ $ % 3 3 3 3 3 = = T # X X # T T # X ",
"X # T T # X X # T E E E E E E E E E E E E ( ^ ^ ^ ^ ^ ^ ^ ^ = $ $ $ $ $ $ $ $ W.G.$ $ $ $ $ $ $ $ $ $ $ $ ^ ^ T # X X # T T # X ",
"X # T T I # # I T E E E E E E E E E E E E 4.>.B ^ 1 1 1 1 1 % $ $ $ $ $ $ $ $ I.;.$ $ $ $ $ 1 1 1 = $ 8 M >.>.T I # # I T T # X ",
"X # T R T T T T R E E E E E E E E E E E E u.0.V W $ $ $ $ $ $ $ $ $ $ $ $ $ $ e.%.$ $ $ $ $ ^ ^ ^ 2 $ @.e.e.9.$ $ T T T R T # X ",
"X # T E E E E E E E E E E E E E E E E E E N 7 : : 1.K g > $ $ $ $ $ $ $ $ $ $ E E $.m $ $ $ = : ^ 3 3 d 7 E E $.$.E E E E T # X ",
"X # T E E E E E E E E E E E E E E E E E E = $ $ % n.g.c a $ $ $ $ $ $ $ $ $ $ E E e.o.$ $ $ $ % ^ ^ ^ = $ E E e.e.E E E E T # X ",
"X # T E E E E E E E E E E E E E E E E E $ $ $ $ % n.n.v.D $ $ $ $ $ $ $ $ $ $ E E E E $ $ $ $ % ^ ^ ^ ^ ^ E E E E E E E E T # X ",
"X # T E E E E E E E E E E E E E E E E E $ $ $ $ % n.n.v.G > % $ & ; > & $ $ $ E E E E 4 & $ $ % 3 3 ^ ^ ^ E E E E E E E E T # X ",
"X # T E E E E E E E E E E E E E E E E E $ $ $ $ % n.n.n.n.n.s $ c H n.G $ $ $ E E E E r.7 $ $ $ $ : ^ ^ ^ E E E E E E E E T # X ",
"X # T E E E E E E E E E E E E E E E E E m 5 $ m M n.j.J j.n.G V c H n.G $ 8 M E E E E r.5 $ $ & M f 2 2 2 E E E E E E E E T # X ",
"X # T E E E E E E E E E E E E E E E E E w.m & %.e.n.f.$ G n.n.n.c H n.G $ $.e.E E E E E $ $ $   q.o.$ $ $ E E E E E E E E T # X ",
"X # T E E E E E E E E E E E E E E E E E E $.O.E E *X#XD.OX*X*X*Xg.f.K V 3 E E E E E E E O.O.$ & E $.O.6 $ E E E E E E E E T # X ",
"X # T E E E E E E E E E E E E E E E E E E u.e.E E :X:X:X:X:X:X:Xn.j.c k ^ E E E E E E E q.q.$ $ E E q.8 $ E E E E E E E E T # X ",
"X # T E E E E E E E E E E E E E E E E E E E E E E :X:X3X:X:XB.n.c '  X X X| } $ $ $ $ E E E 9.9.E E E $ $ E E E E E E E E T # X ",
"X # T E E E E E E E E E E E E E E E E E E E E E E =X=X3X:X;Xn.x.F ' XXXX X} ` $ $ $ $ E E E e.e.E E E     E E E E E E E E T # X ",
"X # T E E E E E E E E E E E E E E E E E E E E n.c.b f.:X%Xn.H c XXXXXX .} 1 $ $ $ $ $ $ E E E E E E E 0.0.E E E E E E E E T # X ",
"X # T E E E E E E E E E E E E E E E E E E E E n.c.K f.D.l.g.A.A.1X,XS.} ) : $ $ $ $ $ $ E E E E E E E E e.E E E E E E E E T # X ",
"X # T E E E E E E E E E E E E E E E E E E E E n.n.c.g.b b b 3X7X8X4X} / % $ $ $ $ $ $ $ E E E E E E E E E E E E E E E E E T # X ",
"X # T E E E E E 1 1 1 E E E E E E E E E E E E n.n.n.g.b k.>X6X8X8X2Xh 1 $ $ $ $ $ $ $ $ = 1 E E E E E E E E E E E E E E E T # X ",
"X # T E E E E 1 % % $ E E E E E E E E E E E E n.n.n.g.b >X8X8X8X8X2X$ $ $ $ $ $ $ $ $ $ $ % E E E E E E E E E E E E E E E T # X ",
"X # T E E E E : o w w : : E E E E E E E E V.M.n.c.b ] 3X6X8X8X8X2 2 3 3 3 = $ $ $ $ $ $ $ $ E E E E E E E E E E E E E E E T # X ",
"X # T E E E E s - e w o % E E E E E E E E M.n.n.c.F A.8X7X7X5X5X$ = ^ ^ h = $ $ $ % $ $ $ $ E E E E E E E E E E E E E E E T # X ",
"X # T E E E E y.O.- O e q 2 h.M.E E E E M.n.n..XXX5X5X8X,X} 3 : $ = ^ 2 % $ $ $ % ^ 1 $ $ $ : : E E E E E E E E E E E E E T # X ",
"X # T E E E E E &.7 p q q p j.}.E E E B.n.N.D.XX>X2X2X>X| _ = $ $ % 2 = $ N n = 1 ^ 3 = = = $ $ E E E E E E E E E E E E E T # X ",
"X # T E E E E E E %.o.$ + i D.;XB.M.M.n.n.|.XXXXXX| ` = = : % $ $ $ $ $ $ -.W.^ ^ ^ ^ ^ ^ ^ $ $ E E E E E E E E E E E E E T # X ",
"X # T E E E E E E E 8.D g - F k.%X%Xv.j.K { | [ ) h 2 $ $ $ a d D D D 4.G.Q.~.^ ^ ^ ^ ^ ^ ^ $ $ E E E E E E E E E E E E E T # X ",
"X # T E E E E E E E E x.G $ % k =X;Xv.g.v ' } 2 % $ $ $ $ $ g c c.c.c.(.[.[.[.^ ^ ^ ^ ^ ^ ^ $ $ E E E E E E E E E E E E E T # X ",
"X # T E E E E E E E E 8.m.@Xl.1.G V k g a > : $ & J h.oXoXoX}.}.%X}.n.(.~.F.#.1 2 ^ ^ ^ ^ ^ $ $ E E E E E E E E E E E E E T # X ",
"X # T E E E E E E E E y.$X;XN.1.; $ $ $ $ $ $ % > n.}.:X:X:X:X:X:X=Xc.H.E.n $ $ % ^ ^ ^ ^ ^ $ $ E E E E E E E E E E E E E T # X ",
"X # T E E E E E E [._.A <.i.>.b & $ $ $ $ $ & P j.*X=X:X:X:X}.B.B.v.H 7.J.7 $ $ $ = = = = = $ $ E E E E E E E E E E E E E T # X ",
"X # T E E E E E E Q.(.S <.t.,.A 6 6 5   $ $ ; b.V.=X*X@X+X+Xj.j.j.1.g X.%.5 $ $ $ $ $ $ $ $ 6 6 E E E E E E E E E E E E E T # X ",
"X # T E E E E _.(.>.5.P.8.2.7.%.%.$.$.M $ $ : +X=XB.c.J G B s s s s ; > 6 & $ $ $ $ $ $ $ $ $.$.E E E E E E E E E E E E E T # X ",
"X # T E E E E W.P.,.&.Q.P.3.8.E E E E +.8 d / oX%XD.z.] ' ` ` ` ` _ ) j + + + 9 9 9 9 9 9 9 E E E E E E E E E E E E E E E T # X ",
"X # T E E E E I.e.0.J.~.!.0.E E E E E E %.1.[ b.M.XXXX X<X4X4X4X4X2X X' e e e 9.9.9.9.9.9.9.E E E E E E E E E E E E E E E T # X ",
"X # T E E E E E E `.`.L.L.E E E E E E E E j 2 V V ) ) ) ) ( ( ( ( ( h , O w u Z.Z.Z.Z.Z.d.a.~ ~ E E E E E E E E E E E E E T # X ",
"X # T E E E E E E ~.~.e.r.E E E E E E E E = $ $ $ $ $ $ $ $ $ $ $ $ $ $ $ w t p.p.p.p.s.i u u u E E E E E E E E E E E E E T # X ",
"X # T E E E E E E K.K.E E E E E E E E E E = $ $ $ $ $ $ $ $ $ $ $ $ $ $ $ % % u u u Q s.! Q Q ! C.C.C.C.C.).).{.{.E E E E T # X ",
"X # T E E E E E E e.e.E E E E E E E E E E = $ $ $ $ $ = = = $ $ $ $ $ % = $ $ w w u i ! ! ! s.s.s.s.s.p.! K.T././.E E E E T # X ",
"X # T E E E E E E E E E E E E E E E E E E = $ $ $ $ = ^ 3 h = $ $ $ $ 1 3 = $ $ o u u u u u s.s.s.s.s.i u ]./.Y.Y.E E E E T # X ",
"X # T E E E E E E E E E E E E E E E E E $ % $ $ $ $ = ^ ^ ^ : = $ $ $ 1 ^ : = $ % w r y y y ! Q x x x y y /./.e.e.E E E E T # X ",
"X # T E E E E E E E E E E E E E E E E E $ $ $ $ $ $ = ^ ^ ^ 3 3 $ $ $ 1 ^ 3 3 $ $ o 0 =.=.=.u t o o o o.=.K.K.e.e.E E E E T # X ",
"X # T E E E E E E E E E E E E E E E E E $ * = $ $ $ = 3 ^ ^ ^ ^ = = $ 1 ^ ^ ^ 1 : $ &   E E ..z 8 8 7 E E E E E E E E E E T # X ",
"X # T E E E E E E E E E E E E E E E E E $ < Y * $ $ $ $ 1 ^ ^ ^ ^ 3 $ 1 ^ ^ ^ ^ 3 $ $ $ E E e.e.e.e.e.E E E E E E E E E E T # X ",
"X # T E E E E E E E E E E E E E E E E E $ < Y * $ $ $ $ 1 ^ ^ ^ ^ 3 $ = 2 3 ^ ^ 3 $ $ $ ' S.E E E E E E E E E E E E E E E T # X ",
"X # T E E E E E E E E E E E E E E E E E $ < Y * $ ; & $ 1 ^ ^ ^ ^ 3 % $ $ 3 ^ ^ 3 % $ $ g l E E E E E E E E E E E E E E E T # X ",
"X # T E E E E E E E E E E E E E E E E E $ < Y * $ o.m $ 1 ^ ^ ^ ^ ^ 3 : $ 3 ^ ^ ^ 3 : $ X.@.] ] E E E E E E E E E E E E E T # X ",
"X # T E E E E E E E E E E E E E E E E E $ < Y * $ E O.6 , 3 ^ ^ ^ ^ ^ 3 : 1 2 ^ / L S S P.T.:.:.E E E E E E E E E E E E E T # X ",
"X # T E E E E E E E E E E E E E E E E E $ < Y * $ E E %.m % 3 ^ ^ ^ ^ ^ h = $ ^ V ;.U.~.].].9.*.F F E E E E E E E E E E E T # X ",
"X # T E E E E E E E E E E E E E E E E E $ = < $ $ E E E   $ 3 ^ ^ ^ ^ ^ ^ C m S 4.U.!.[.[.[.R.I.c c E E E E E E E E E E E T # X ",
"X # T E E E E E E E E E E E E E E E E E $ $ $ $ $ E E E $ $ 3 ^ ^ ^ ^ ^ ^ &.e.e.J.E.~.[.[.[.[.~.c c E E E E E E E E E E E T # X ",
"X # T R T T T T R E E E E E E E E E E E $ $ $ > a E E E g g >.>.5.5.6.6.6.E.^.e.e.U.E.~.].[.4.>.z z E E E E E R T T T T R T # X ",
"X # T T I # # I T E E E E E E E E E E E ; ; - k c E E E c c *.y.E.E.].[.[.[.[.e.e.e.I.E.~./.c l e.E E E E E E T I # # I T T # X ",
"X # T T # X X # T E E E E E E E E E E E P P P b c E E E ,.,.,.,.J.I.E.~.[.[.[.!.R.e.;.&.-.-.,.,.E E E E E E E T # X X # T T # X ",
"X # T T # X X # T E E E E E E E E E E oXg.x.c.D c E E E E E Z c e.J.U.!.'.'.'.'.~.e.+.c f.l.3.3.E E E E E E E T # X X # T T # X ",
"X # T T I # # I T E E E E E E E E E :XoXH N.&XJ c E E E E E *.*.:.:.>.>.4.4.4.4.>.:.l - D.-Xc c E E E E E E E T I # # I T T # X ",
"X # T R T T T T R E E E E E E E $ V #Xz.k l.+XF k E E E E E E E Z Z Z Z Z Z Z g g g a $ z.#Xg g E E E E E E E R T T T T R T # X ",
"X @ U T T T T T T T T T T T T T $ $ % % $ % % $ $ T T T T T T T w.w.w.w.w.w.w.$ $ $ $ $ % % $ $ T T T T T T T T T T T T T U @ X ",
"X . @ # # # # # # # # # # # # # 7 7 7 7 7 7 7 7 7 # # # # # # # # # # # # # # 7 7 7 7 7 7 7 7 7 # # # # # # # # # # # # # @ . X ",
"X X X X X X X X X X X X X X X X q.r.r.r.r.r.r.r.r.X X X X X X X X X X X X X X r.r.r.r.r.r.r.r.r.X X X X X X X X X X X X X X X X "
};
