/* XPM */
static char *c7370365315d407cebc8b32ca6b2d2bd1GYO0lrWCXjN9dFv[] = {
/* columns rows colors chars-per-pixel */
"64 64 211 2 ",
"   c #3A2C1F",
".  c #37032F",
"X  c #38002C",
"o  c #2F1F25",
"O  c #331E25",
"+  c #3F1B28",
"@  c #340835",
"#  c #320A38",
"$  c #252222",
"%  c #2B2524",
"&  c #2F2824",
"*  c #282529",
"=  c #2D2B2B",
"-  c #382724",
";  c #332925",
":  c #312E2E",
">  c #3A2D29",
",  c #3A2E30",
"<  c #302F3D",
"1  c #343232",
"2  c #393635",
"3  c #3D3C3C",
"4  c #402E1E",
"5  c #46321D",
"6  c #4B341D",
"7  c #53381C",
"8  c #5C3D1A",
"9  c #603E1A",
"0  c #6E3D1C",
"q  c #4A182C",
"w  c #52152D",
"e  c #5B122E",
"r  c #5E182D",
"t  c #5F1531",
"y  c #6C1C2D",
"u  c #631432",
"i  c #6B1C37",
"p  c #482925",
"a  c #432D2A",
"s  c #42342B",
"d  c #4D372B",
"f  c #593F23",
"g  c #55342E",
"h  c #413E3E",
"j  c #483938",
"k  c #573732",
"l  c #693D2B",
"z  c #753A29",
"x  c #62213A",
"c  c #623732",
"v  c #633932",
"b  c #693D34",
"n  c #58481F",
"m  c #6B4418",
"M  c #754817",
"N  c #564222",
"B  c #4D433B",
"V  c #594538",
"C  c #674329",
"Z  c #73422A",
"A  c #7A4729",
"S  c #7A572C",
"D  c #6A4335",
"F  c #6A433D",
"G  c #694938",
"H  c #714436",
"J  c #754B3B",
"K  c #784B3B",
"L  c #6A5135",
"P  c #7A523B",
"I  c #2E1241",
"U  c #2C1847",
"Y  c #37374D",
"T  c #272050",
"R  c #232759",
"E  c #222A5C",
"W  c #413F40",
"Q  c #7A2645",
"!  c #7F2949",
"~  c #793750",
"^  c #424242",
"/  c #4A4542",
"(  c #4D4B4B",
")  c #524D49",
"_  c #595555",
"`  c #5C5959",
"'  c #6C514F",
"]  c #7D5D56",
"[  c #6A635E",
"{  c #786158",
"}  c #6A6664",
"|  c #726E6B",
" . c #797571",
".. c #843124",
"X. c #874C1B",
"o. c #8A5314",
"O. c #9C5C12",
"+. c #9A5E1D",
"@. c #A35D15",
"#. c #80691E",
"$. c #8F731D",
"%. c #AC630E",
"&. c #B7690D",
"*. c #A9691A",
"=. c #B66715",
"-. c #BD6111",
";. c #A9751E",
":. c #BB7615",
">. c #844C26",
",. c #885A28",
"<. c #925321",
"1. c #995C24",
"2. c #84553F",
"3. c #995A35",
"4. c #A15E26",
"5. c #8B6127",
"6. c #8B662A",
"7. c #90692E",
"8. c #99792A",
"9. c #A76421",
"0. c #B1702B",
"q. c #C36E0B",
"w. c #CA720C",
"e. c #D67907",
"r. c #D37609",
"t. c #D67A0A",
"y. c #D87809",
"u. c #C06D17",
"i. c #CA7715",
"p. c #D97D11",
"a. c #CE7D25",
"s. c #862E4E",
"d. c #843E47",
"f. c #883050",
"g. c #8C444F",
"h. c #895A45",
"j. c #945E43",
"k. c #886147",
"l. c #966446",
"z. c #886558",
"x. c #976B53",
"c. c #96735B",
"v. c #A26847",
"b. c #A56C49",
"n. c #AA6F4A",
"m. c #A4704F",
"M. c #AB714B",
"N. c #AE7551",
"B. c #A87555",
"V. c #B37B55",
"C. c #B57F59",
"Z. c #984C68",
"A. c #A15460",
"S. c #886B66",
"D. c #8C7B74",
"F. c #A67C62",
"G. c #AC8A1C",
"H. c #B28C1B",
"J. c #BD892E",
"K. c #D3850E",
"L. c #DE8B0D",
"P. c #DF920E",
"I. c #C58F17",
"U. c #D58B13",
"Y. c #D49513",
"T. c #E08B0C",
"R. c #E4940E",
"E. c #E69E13",
"W. c #D9A614",
"Q. c #D0A219",
"!. c #DCB11A",
"~. c #E7AB14",
"^. c #E9B917",
"/. c #F3B916",
"(. c #F7BD16",
"). c #CB9429",
"_. c #E0912B",
"`. c #DEAF27",
"'. c #EBBB30",
"]. c #F2C317",
"[. c #F7C318",
"{. c #FECD19",
"}. c #FFD537",
"|. c #B8835D",
" X c #9D8068",
".X c #8D8479",
"XX c #988674",
"oX c #93897D",
"OX c #B58461",
"+X c #B68D6B",
"@X c #BA8C6A",
"#X c #BC9471",
"$X c #D18D42",
"%X c #C18D66",
"&X c #C3916B",
"*X c #C9976F",
"=X c #CA9B74",
"-X c #CFA07A",
";X c #D5A57C",
":X c #D7A87F",
">X c #968A86",
",X c #9B9793",
"<X c #A49E99",
"1X c #A5A098",
"2X c #AAA8A8",
"3X c #B5ACAB",
"4X c #B6B5B5",
"5X c #BCB9B9",
"6X c #C1BCBC",
"7X c #C5C4C4",
"8X c #C9C9C9",
/* pixels */
"X X X X X X X X X X X X X X X X X X X X X X X X X X X X X X X X X X X X X X X X X X X X X X X X X X X X X X X X X X X X X X X X ",
"X . @ # # # # # # # # # # # # # # # # # # # # # # # # # # # # # # # # # # # # # # # # # # # # # # # # # # # # # # # # # # @ . X ",
"X @ U T T T T T T T T T T $ 1 ^ ^ ^ $ $ $ T T T T T T $ $ $ $ $ ^ ^ ^ ^ ^ = $ T T T T T T T T T T T T T T T T T T T T T T U @ X ",
"X # T R T T T T R E E E E $ 1 ^ ^ ^ $ $ $ E E E E E E $ $ $ $ $ ^ ^ ^ ^ ^ = $ E E E E E E E E E E E E E E E E R T T T T R T # X ",
"X # T T I # # I T $ $ ^ ^ ^ ^ ^ % $ $ $ $ $ $ H.Q.Q.G.$ $ $ 3 ^ ^ ^ ^ ^ ^ ^ ^ ^ ^ E E E E E E E E E E E E E E T I # # I T T # X ",
"X # T T # X X # T * * 3 3 3 3 3 % $ $ $ $ $ $ H.Q.H.$.$ $ $ 2 3 3 3 ^ ^ ^ ^ ^ ^ ^ E E E E E E E E E E E E E E T # X X # T T # X ",
"X # T T # X X # T ^ ^ $ $ $ $ $ $ $ $ $ $ $ $ H.Q.$ $ $ $ $ $ $ $ * ^ ^ ^ ^ ^ ^ ^ ^ ( E E E E E E E E E E E E T # X X # T T # X ",
"X # T T I # # I T ,.,.M 8 $ = 1 1 1 $ $ $ $ $ :.U.$ $ $ $ $ $ $ $ % 1 1 1 1 1 ^ B ,.5.E E E E E E E E E E E E T I # # I T T # X ",
"X # T R T T T $ $ q.y.y.@.$ 1 ^ ^ ^ $ $ $ $ $ &.y.$ $ $ $ $ $ $ $ $ $ $ $ $ $ W V w.p.E E E E E E E E E E E E R T T T T R T # X ",
"X # T E E E E %.%.E E 7 d 3 3 ^ : = $ $ $ m %.E E $ $ $ $ $ $ $ $ $ $ > g K 2.: : 7 N E E E E E E E E E E E E E E E E E E T # X ",
"X # T E E E E t.t.E E $ = ^ ^ ^ % $ $ $ $ o.t.E E $ $ $ $ $ $ $ $ $ $ a c j.M.% $ $ = E E E E E E E E E E E E E E E E E E T # X ",
"X # T E E E E E E E E ^ ^ ^ ^ ^ % $ $ $ $ E E E E $ $ $ $ $ $ $ $ $ $ D n.M.M.% $ $ $ $ E E E E E E E E E E E E E E E E E T # X ",
"X # T E E E E E E E E ^ ^ ^ 3 3 % $ $ % 4 E E E E $ $ $ & > & & $ % > L n.M.M.% $ $ $ $ E E E E E E E E E E E E E E E E E T # X ",
"X # T E E E E E E E E ^ ^ ^ : $ $ $ $ 7 y.E E E E $ $ $ G M.H c $ s M.M.M.M.M.% $ $ $ $ E E E E E E E E E E E E E E E E E T # X ",
"X # T E E E E E E E E 1 1 1 f M % $ $ 5 y.E E E E M 8 $ G M.H c V L M.l.J l.M.M m % 5 m E E E E E E E E E E E E E E E E E T # X ",
"X # T E E E E E E E E $ $ $ o.y.  $ $ $ E E E E E y.%.$ G M.H c M.M.M.G $ h.M.r.&.% m r.E E E E E E E E E E E E E E E E E T # X ",
"X # T E E E E E E E E $ 6 O.%.E % $ O.O.E E E E E E E 3 V J h.j.*X*X*X+XF.#X*XE E O.%.E E E E E E E E E E E E E E E E E E T # X ",
"X # T E E E E E E E E $ 8 r.E E $ $ r.r.E E E E E E E ^ k c l.M.:X:X:X:X;X:X:XE E t.p.E E E E E E E E E E E E E E E E E E T # X ",
"X # T E E E E E E E E $ $ E E E q.q.E E E $ $ $ $ } | .X.X.X' c M.V.;X:X:X:X:XE E E E E E E E E E E E E E E E E E E E E E T # X ",
"X # T E E E E E E E E     E E E y.y.E E E $ $ $ $ ` } .XoXoX' F v.N.;X;X:X=X=XE E E E E E E E E E E E E E E E E E E E E E T # X ",
"X # T E E E E E E E E w.w.E E E E E E E $ $ $ $ $ $ 1 }  .oXoXoXc H M.%X:Xh.b b.M.E E E E E E E E E E E E E E E E E E E E T # X ",
"X # T E E E E E E E E y.E E E E E E E E $ $ $ $ $ $ : ) } D.,X1XS.S.j.x.F.h.K b.M.E E E E E E E E E E E E E E E E E E E E T # X ",
"X # T E E E E E E E E E E E E E E E E E $ $ $ $ $ $ $ % / } 3X7X7X3Xv v b j.b.M.M.E E E E E E E E E E E E E E E E E E E E T # X ",
"X # T E E E E E E E E E E E E E E E 1 = $ $ $ $ $ $ $ $ 1 h 2X8X8X6X>Xz.v j.M.M.M.E E E E E E E E E E E E 1 1 1 E E E E E T # X ",
"X # T E E E E E E E E E E E E E E E % $ $ $ $ $ $ $ $ $ $ $ 2X8X8X8X7X>Xv j.M.M.M.E E E E E E E E E E E E $ % % 1 E E E E T # X ",
"X # T E E E E E E E E E E E E E E E $ $ $ $ $ $ $ $ * 3 3 3 2 2 8X8X8X6X3X] b b.M.N.C.E E E E E E E E : : q w o : E E E E T # X ",
"X # T E E E E E E E E E E E E E E E $ $ $ $ % $ $ $ * h ^ ^ * $ 5X5X7X7X8XS.F b.m.M.N.E E E E E E E E % % w e - s E E E E T # X ",
"X # T E E E E E E E E E E E E E : : $ $ $ 1 ^ % $ $ $ % 1 ^ * $ : 3 | ,X7X5X5XoXXXm.M.N.E E E E N.k.2 q e O - O.i.E E E E T # X ",
"X # T E E E E E E E E E E E E E $ $ = = = 3 ^ 1 = n N $ = 2 % $ $ = _ | >X2X2X>XoXF.B.M.V.E E E |.l.p q q p 7 *.E E E E E T # X ",
"X # T E E E E E E E E E E E E E $ $ ^ ^ ^ ^ ^ ^ ^ Q.;.$ $ $ $ $ $ % : = = ` | oXoXoX Xm.M.N.N.V.;XF.i + % o.&.E E E E E E T # X ",
"X # T E E E E E E E E E E E E E $ $ ^ ^ ^ ^ ^ ^ ^ ^.!.H.6.D D D d a $ $ $ 2 h ) [ | { K l.n.%X%Xz.F - g D 0.E E E E E E E T # X ",
"X # T E E E E E E E E E E E E E $ $ ^ ^ ^ ^ ^ ^ ^ {.{.{.).b.b.b.c g $ $ $ $ $ % 2 } ' v j.n.;X=Xk % $ J v.E E E E E E E E T # X ",
"X # T E E E E E E E E E E E E E $ $ ^ ^ ^ ^ ^ 1 1 $.G.^.).M.|.%X|.|.OXOXOXk.J & $ : > a d k V G h.x.@X|.0.E E E E E E E E T # X ",
"X # T E E E E E E E E E E E E E $ $ ^ ^ ^ ^ ^ % $ $ n W.J.b.=X;X;X;X:X:X:X|.M.> % $ $ $ $ $ $ ; h.B.;X$Xi.E E E E E E E E T # X ",
"X # T E E E E E E E E E E E E E $ $ = = = = = $ $ $ 7 K.9.H m.V.V.|.;X:X:X=X*Xl.P & $ $ $ $ $ & b ,.a.1.A `.{.E E E E E E T # X ",
"X # T E E E E E E E E E E E E E 6 6 $ $ $ $ $ $ $ $ 5 &.X.g 2.l.l.l.+X+X@X*X=XC.m.; $ $   5 6 6 A <.u.1.S ).!.E E E E E E T # X ",
"X # T E E E E E E E E E E E E E %.%.$ $ $ $ $ $ $ $ % 6 > & s s s s B G J b.V.=X+X: $ $ M %.%.%.&.9.3.0.I.7.,.).`.E E E E T # X ",
"X # T E E E E E E E E E E E E E E E 9 9 9 9 9 9 8 + + + j ) _ ` ` ` ` [ ] c.F.%XOX/ d 8 +.E E E E =.4.I.!.*.<.I.Q.E E E E T # X ",
"X # T E E E E E E E E E E E E E E E q.q.q.q.q.q.q.e e e ' .X3X4X4X4X4X<X.XoXoXN.m.[ 7.&.E E E E E E w.W.^.K.w.y.U.E E E E T # X ",
"X # T E E E E E E E E E E E E E ~ ~ d.g.A.A.A.A.A.t w O , h ( ( ( ( ( ) ) ) ) V V 2 j E E E E E E E E P.P.'.'.E E E E E E T # X ",
"X # T E E E E E E E E E E E E E u u u i f.s.s.s.s.t w $ $ $ $ $ $ $ $ $ $ $ $ $ $ $ = E E E E E E E E y.y.^.^.E E E E E E T # X ",
"X # T E E E E }.}._._.Z.Z.Z.Z.Z.! Q Q ! f.Q u u u % % $ $ $ $ $ $ $ $ $ $ $ $ $ $ $ = E E E E E E E E E E L.L.E E E E E E T # X ",
"X # T E E E E (.(.R.L.! s.f.f.f.f.f.! ! ! i u w q $ $ = % $ $ $ $ $ = = = $ $ $ $ $ = E E E E E E E E E E y.y.E E E E E E T # X ",
"X # T E E E E T.T.(.[.u i f.f.f.f.f.u u u u u o $ $ * 3 1 $ $ $ $ * h 3 ^ = $ $ $ $ = E E E E E E E E E E E E E E E E E E T # X ",
"X # T E E E E y.y.(.(.y y x x x Q ! y y y r w % $ = : ^ 1 $ $ $ = : ^ ^ ^ = $ $ $ $ % $ E E E E E E E E E E E E E E E E E T # X ",
"X # T E E E E y.y.L.L.-.X.o o o t u -.-.-.0 o $ $ 3 3 ^ 1 $ $ $ 3 3 ^ ^ ^ = $ $ $ $ $ $ E E E E E E E E E E E E E E E E E T # X ",
"X # T E E E E E E E E E E 7 8 8 z ..E E   % $ : 1 ^ ^ ^ 1 $ = = ^ ^ ^ ^ 3 * $ $ $ = * $ E E E E E E E E E E E E E E E E E T # X ",
"X # T E E E E E E E E E E y.y.y.y.y.E E $ $ $ 3 ^ ^ ^ ^ 1 $ 3 ^ ^ ^ ^ 1 $ $ $ $ * Y < $ E E E E E E E E E E E E E E E E E T # X ",
"X # T E E E E E E E E E E E E E E E D.' $ $ $ 3 ^ ^ 3 1 = $ 3 ^ ^ ^ ^ 1 $ $ $ $ * Y < $ E E E E E E E E E E E E E E E E E T # X ",
"X # T E E E E E E E E E E E E E E E l g $ $ % 3 ^ ^ 3 $ $ % 3 ^ ^ ^ ^ 1 $ % ; $ * Y < $ E E E E E E E E E E E E E E E E E T # X ",
"X # T E E E E E E E E E E E E E ] ] @.X.$ : 3 W ^ ^ 3 $ : 3 ^ ^ ^ ^ ^ 1 $ m o.$ * Y < $ E E E E E E E E E E E E E E E E E T # X ",
"X # T E E E E E E E E E E E E E >.>.R.I.#.S L / ^ 1 1 : 3 ^ ^ ^ ^ ^ 3 , 6 O.E $ * Y < $ E E E E E E E E E E E E E E E E E T # X ",
"X # T E E E E E E E E E E E F F =.q.[.].^.Y.:.V ^ $ = h ^ ^ ^ ^ ^ 3 % m &.E E $ * Y < $ E E E E E E E E E E E E E E E E E T # X ",
"X # T E E E E E E E E E E E c c U.E.{.{.{.~.Y.5.S m C ^ ^ ^ ^ ^ ^ 3 $   E E E $ $ < = $ E E E E E E E E E E E E E E E E E T # X ",
"X # T E E E E E E E E E E E c c ^.{.{.{.{.^.W.K.t.t.*.^ ^ ^ ^ ^ ^ 3 $ $ E E E $ $ $ $ $ E E E E E E E E E E E E E E E E E T # X ",
"X # T R T T T T R E E E E E z z ,.6.{.[.^.W.Y.t.t./.W.8.8.8.7.6.,.,.g g E E E a > $ $ $ E E E E E E E E E E E R T T T T R T # X ",
"X # T T I # # I T E E E E E E y.l c (.^.W.U.t.t.t.{.{.{.{.[.W.W.i.=.c c E E E c k ; ; ; E E E E E E E E E E E T I # # I T T # X ",
"X # T T # X X # T E E E E E E E <.<.;.;.*.:.t.E.~.{.{.{.^.W.U.K.1.<.<.<.E E E c v P P P E E E E E E E E E E E T # X X # T T # X ",
"X # T T # X X # T E E E E E E E 4.4.x.h.c +.t.^.].].].].~.Y.K.t.c Z E E E E E c D b.v.j.OXE E E E E E E E E E T # X X # T T # X ",
"X # T T I # # I T E E E E E E E v v -XF.- l >.,.5.5.5.5.,.,.>.>.=.=.E E E E E c J &XB.H OX;XE E E E E E E E E T I # # I T T # X ",
"X # T R T T T T R E E E E E E E g g #Xc.$ a g g g Z Z Z Z Z Z Z E E E E E E E k F +Xx.k c.#XV % E E E E E E E R T T T T R T # X ",
"X @ U T T T T T T T T T T T T T $ $ % % $ $ $ $ $ r.r.r.r.r.r.r.T T T T T T T $ % % % $ % % $ $ T T T T T T T T T T T T T U @ X ",
"X . @ # # # # # # # # # # # # # 7 7 7 7 7 7 7 7 7 # # # # # # # # # # # # # # 7 7 7 7 7 7 7 7 7 # # # # # # # # # # # # # @ . X ",
"X X X X X X X X X X X X X X X X y.y.y.y.y.y.y.y.y.X X X X X X X X X . . X X X y.y.y.y.y.y.y.y.e.X X X X X X X X X X X X X X X X "
};
