/* XPM */
static char *_d7158750ead4cf9f127d087ec5e8881I9sJAS8tEfX3Y3ql[] = {
/* columns rows colors chars-per-pixel */
"64 64 71 1 ",
"  c black",
". c #080A17",
"X c #37032F",
"o c #38002C",
"O c #3A0733",
"+ c #340835",
"@ c #320A38",
"# c #380D38",
"$ c #3A133E",
"% c #3E143D",
"& c #232B30",
"* c #2E1241",
"= c #2C1847",
"- c #321744",
"; c #3E1842",
": c #381E49",
"> c #192045",
", c #39214B",
"< c #3B224C",
"1 c #272050",
"2 c #272454",
"3 c #292656",
"4 c #232759",
"5 c #222A5C",
"6 c #232C5D",
"7 c #252E5F",
"8 c #372651",
"9 c #3F2750",
"0 c #33325E",
"q c #273060",
"w c #2D3361",
"e c #2B3564",
"r c #2C3664",
"t c #2F3A67",
"y c #373762",
"u c #3D3A63",
"i c #3D3E67",
"p c #323D69",
"a c #401A43",
"s c #452E55",
"d c #493C60",
"f c #37406A",
"g c #36426D",
"h c #37456E",
"j c #3F4168",
"k c #394670",
"l c #3D4B73",
"z c #3F4D75",
"x c #43466C",
"c c #49486D",
"v c #4E5072",
"b c #4D5275",
"n c #4E5476",
"m c #435279",
"M c #45557A",
"N c #4A577B",
"B c #495A7E",
"V c #4A5C7F",
"C c #4E5C7E",
"Z c #505678",
"A c #4D5E81",
"S c #4E6082",
"D c #546383",
"F c #506385",
"G c #536686",
"H c #546887",
"J c #566A89",
"K c #637A96",
"L c #68808F",
"P c #7E9BB1",
"I c #8BABBF",
/* pixels */
"                                                                ",
"&&&&&&&&&&&&&&&&&&&&&&&&&&&&&&&&&&&&&&&&&&&&&&&&&&&&&&&&&&&&&&&&",
"LLLLLLLLLLLLLLLLLLLLLLLLLLLLLLLLLLLLLLLLLLLLLLLLLLLLLLLLLLLLLLLL",
"IIIIIIIIIIIIIIIIIIIIIIIIIIIIIIIIIIIIIIIIIIIIIIIIIIIIIIIIIIIIIIII",
"IIIIIIIIIIIIIIIIIIIIIIIIIIIIIIIIIIIIIIIIIIIIIIIIIIIIIIIIIIIIIIII",
"PPPPPPPPPPPPPPPPPPPPPPPPPPPPPPPPPPPPPPPPPPPPPPPPPPPPPPPPPPPPPPPP",
"KKKKKKKKKKKKKKKKKKKKKKKKKKKKKKKKKKKKKKKKKKKKKKKKKKKKKKKKKKKKKKKK",
"JJJJJJJJJJJJJJJJJJJJJJJJJJJJJJJJJJJJJJJJJJJJJJJJJJJJJJJJJJJJJJJJ",
"JJJJJJJJJJJJJJJJJJJJJJJJJJJJJJJJJJJJJJJJJJJJJJJJJJJJJJJJJJJJJJJJ",
"SFHJJJJJJJJJJJJDZvvvvvvvvvvvvvvvvvvvvvvvvvvvvvvZDJJJJJJJJJJJJHFS",
"zMFJJJJJJJJJJJJZsaaaaaaaaaaaaaaaaaaaaaaaaaaaaaasZJJJJJJJJJJJJFMz",
"hzSJJJJJJJJJJJJZs%OooooooooX+@@@@@@+XooooooooO%sZJJJJJJJJJJJJSzh",
"hzSJJJJJJJJJJJJDZd%oooooooo+=111111=+oooooooo%dZDJJJJJJJJJJJJSzh",
"zMFJJJJJJJJJJJJJJZs%Ooooooo@15555551@ooooooO%sZJJJJJJJJJJJJJJFMz",
"SFHJJJJJJJJJJJJJJDZd%oooooo@15555551@oooooo%dZDJJJJJJJJJJJJJJHFS",
"JJJJJDZZDJJJJJJJJJJZs%Ooooo@15555551@ooooO%sZJJJJJJJJJJDZZDJJJJJ",
"JJJJJZssZJJJJJJJJJJDZd%oooo@15555551@oooo%dZDJJJJJJJJJJZssZJJJJJ",
"JJJJJva%dZDJJJJJJJJJJZs%Ooo@15555551@ooO%sZJJJJJJJJJJDZd%avJJJJJ",
"JJJJJvaO%sZJJJJJJJJJJDZd%oo@15555551@oo%dZDJJJJJJJJJJZs%OavJJJJJ",
"JJJJJvaoo%dZDJJJJJJJJJJZs%O@15555551@O%sZJJJJJJJJJJDZd%ooavJJJJJ",
"JJJJJvaooO%sZJJJJJJJJJJDZd%@15555551@%dZDJJJJJJJJJJZs%OooavJJJJJ",
"SFHJJvaoooo%dZDJJJJHFSSFHZs:35555553:sZHFSSFHJJJJDZd%ooooavJJHFS",
"zMFJJvaooooO%sZJJJJFMzzMFDZxw555555wxZDFMzzMFJJJJZs%OooooavJJFMz",
"hzSJJvaoooooo%dZDJJSzhhzSJJAkr7557rkAJJSzhhzSJJDZd%ooooooavJJSzh",
"hzSJJvaooooooO%sZJJSzhhzSJJGAzr55rzAGJJSzhhzSJJZs%OooooooavJJSzh",
"zMFJJvaoooooooo%dZDFMzzMFJJJJAkttkAJJJJFMzzMFDZd%ooooooooavJJFMz",
"SFHJJvaooooooooO%sZHFSSFHJJJJGABBAGJJJJHFSSFHZs%OooooooooavJJHFS",
"JJJJJvaoooooooooo%dZDJJJJHFSSFHJJHFSSFHJJJJDZd%ooooooooooavJJJJJ",
"JJJJJvaooooooooooO%sZJJJJFMzzMFJJFMzzMFJJJJZs%OooooooooooavJJJJJ",
"JJJJJb<@@@@@@@@@@+X%dZDJJSzhhzSJJSzhhzSJJDZd%X+@@@@@@@@@@<bJJJJJ",
"JJJJJN01111111111=+O%sZJJSzhhzSJJSzhhzSJJZs%O+=11111111110NJJJJJ",
"JJJJJBt55555555551*+X%dZDFMzzMFJJFMzzMFDZd%X+*15555555555tBJJJJJ",
"JJJJJBt555555555541=+O%sZHFSSFHJJHFSSFHZs%O+=145555555555tBJJJJJ",
"JJJJJBt5555555555551*+XavJJJJJJJJJJJJJJvaX+*1555555555555tBJJJJJ",
"JJJJJBt55555555555541=+avJJJJJJJJJJJJJJva+=14555555555555tBJJJJJ",
"JJJJJBt555555555555552-9nHFSSFHJJHFSSFHn9-255555555555555tBJJJJJ",
"JJJJJBt5555555555555570jCFMzzMFJJFMzzMFCj0755555555555555tBJJJJJ",
"JJJJJBt55555555555567epzSSzhhzSJJSzhhzSSzpe721111111111110NJJJJJ",
"JJJJJBt5555555555557tpgzSSzhhzSJJSzhhzSSzgp0-@@@@@@@@@@@@<bJJJJJ",
"JJJJJN0111111111127ephhlBVmzzMFJJFMzzmVBlhhy:#OooooooooooavJJJJJ",
"JJJJJb<@@@@@@@@@@-0pghhklmVSSFHJJHFSSVmlkhhfy8#ooooooooooavJJJJJ",
"JJJJJvaooooooooO#:yklzzlklBSSCnvvnCSSBlklzzlky:#OooooooooavJJJJJ",
"JJJJJvaoooooooo#8yflBSSBlklzzj9aa9jzzlklBSSBlfy8#ooooooooavJJJJJ",
"JJJJJvaooooooO#:yhhzSJJSzhhfy8#oo#8yfhhzSJJSzhhy:#OooooooavJJJJJ",
"JJJJJvaoooooo#8yfhhzSJJSzhhy:#OooO#:yhhzSJJSzhhfy8#ooooooavJJJJJ",
"JJJJJvaooooO#:yhhhhlBSSBlfy8#X+@@+X#8yflBSSBlhhhhy:#OooooavJJJJJ",
"JJJJJvaoooo#8yfhhhhklzzlky:#O+=11=+O#:yklzzlkhhhhfy8#ooooavJJJJJ",
"JJJJJvaooO#:yhhhhhhhhhhfy8#X+*1551*+X#8yfhhhhhhhhhhy:#OooavJJJJJ",
"JJJJJvaoo#8yfhhhhhhhhhhy:#O+=145541=+O#:yhhhhhhhhhhfy8#ooavJJJJJ",
"SSSSSc;O#:yhhhhhhhhhhfy8#oo@15555551@oo#8yfhhhhhhhhhhy:#O;cSSSSS",
"zzzzzu$#8yfhhhhhhhhhhy:#Ooo@15555551@ooO#:yhhhhhhhhhhfy8#$uzzzzz",
"zzzzzi,:yhhhhhhhhhhfy8#oooo@15555551@oooo#8yfhhhhhhhhhhy:,izzzzz",
"SSSSSNiyfhhhhhhhhhhy:#Ooooo@15555551@ooooO#:yhhhhhhhhhhfyiNSSSSS",
"SSSSSBlhhhhhhhhhhfy8#oooooo@15555551@oooooo#8yfhhhhhhhhhhlBSSSSS",
"zzzzzlkhhhhhhhhhhy:#Ooooooo@15555551@ooooooO#:yhhhhhhhhhhklzzzzz",
"hhhhhhhhhhhhhhhfy8#oooooooo@15555551@oooooooo#8yfhhhhhhhhhhhhhhh",
"hhhhhhhhhhhhhhhy:#Ooooooooo@15555551@ooooooooO#:yhhhhhhhhhhhhhhh",
"ppppppppppppppp0-@@@@@@@@@@*15555551*@@@@@@@@@@-0ppppppppppppppp",
"qqqqqqqqqqqqqqq7211111111111455555541111111111127qqqqqqqqqqqqqqq",
"5555555555555555555555555555555555555555555555555555555555555555",
"5555555555555555555555555555555555555555555555555555555555555555",
">>>>>>>>>>>>>>>>>>>>>>>>>>>>>>>>>>>>>>>>>>>>>>>>>>>>>>>>>>>>>>>>",
"................................................................",
"                                                                "
};
